<svg width="346" height="344" viewBox="0 0 346 344" fill="none" xmlns="http://www.w3.org/2000/svg">
<path fill-rule="evenodd" clip-rule="evenodd" d="M189.22 333.953C237.68 330.372 275.964 306.193 306.109 272.107C316.351 260.527 330.417 235.526 335.295 221.137C365.556 131.889 321.75 134.962 309.937 146.666C295.694 160.779 311.195 183.824 284.915 228.37C279.643 237.307 276.761 240.205 270.809 247.525C268.898 249.875 268.059 251.284 266.075 253.45C261.972 257.928 258.54 259.464 254.464 263.125C246.461 270.317 239.111 274.611 228.475 279.73C197.091 294.835 154.929 296.769 121.596 281.824C97.775 271.144 88.2182 262.307 73.0234 245.211C35.9789 203.532 47.3414 162.717 38.6525 150.277C33.0058 142.193 20.3357 136.361 8.44224 145.075C-2.5536 153.132 -0.10945 164.854 1.13663 180.113C3.10847 204.26 11.0054 226.484 21.7354 245.677C32.784 265.44 48.696 284.964 66.5366 298.337C80.7754 309.009 97.4794 319.368 114.809 324.859C141.819 333.417 160.078 336.105 189.22 333.951V333.953Z" fill="#912F56"/>
<path fill-rule="evenodd" clip-rule="evenodd" d="M279.746 308.389C285.432 321.707 296.111 335.836 298.608 343.683L313.739 343.807C310.792 332.411 303.546 303.309 298.091 295.357C294.909 297.158 297.785 295.466 295.547 297.301C291.097 300.949 284.71 306.772 279.747 308.389H279.746Z" fill="#912F56"/>
<path fill-rule="evenodd" clip-rule="evenodd" d="M47.0873 343.771C51.1711 331.68 61.7858 320.929 65.7257 308.453C59.6566 306.351 60.198 305.297 55.3481 301.529C53.2159 299.873 48.7913 296.322 46.6092 295.156L31.8242 343.782L47.0873 343.771Z" fill="#912F56"/>
<path fill-rule="evenodd" clip-rule="evenodd" d="M89.9243 246.649C111.177 267.901 140.508 281.092 172.787 281.092C205.066 281.092 234.398 267.901 255.649 246.649C276.902 225.396 290.093 196.065 290.093 163.786V139.844H252.76V163.786C252.76 185.759 243.757 205.749 229.253 220.252C214.749 234.756 194.759 243.759 172.787 243.759C150.814 243.759 130.824 234.756 116.32 220.252C101.817 205.749 92.8139 185.76 92.8139 163.786V139.844H55.4805V163.786C55.4805 196.065 68.6718 225.396 89.9243 246.649Z" fill="#912F56"/>
<path fill-rule="evenodd" clip-rule="evenodd" d="M169.727 110.014H129.588V142.072V144.984H169.727V142.072V110.014Z" fill="#97A87A"/>
<path fill-rule="evenodd" clip-rule="evenodd" d="M178.176 110.014V142.072V144.984H218.315V142.072V110.014H178.176Z" fill="#97A87A"/>
<path fill-rule="evenodd" clip-rule="evenodd" d="M218.315 152.342H178.176V161.117V187.311H218.315V161.117V152.342Z" fill="#97A87A"/>
<path fill-rule="evenodd" clip-rule="evenodd" d="M169.727 161.119V152.344H129.588V161.119V187.313H169.727V161.119Z" fill="#97A87A"/>
<path fill-rule="evenodd" clip-rule="evenodd" d="M76.0872 4.896V53.6064L54.8184 65.3885L55.4808 100.693V130.69H92.8142L91.7189 85.3248L174.156 42.0058L252.759 84.8218V130.691H290.092V70.6262L172.855 0L108.938 35.4077V4.89696H76.0852L76.0872 4.896Z" fill="#912F56"/>
</svg>
